<svg xmlns="http://www.w3.org/2000/svg" version="1.0" width="2190.0000010430813" height="368.0000027567148" preserveAspectRatio="xMidYMid meet" style="">
    <rect id="backgroundrect" width="100%" height="100%" x="0" y="0" fill="none" stroke="none"/>


<g class="currentLayer" style=""><title>Layer 1</title><g transform="translate(0,1400) scale(0.10000000149011612,-0.10000000149011612) " fill="#000000" stroke="none" id="svg_1" class="">
<path d="M10600,14004.000000000002 c-278,-25 -574,-118 -794,-248 c-116,-69 -259,-179 -356,-276 c-89,-87 -200,-219 -200,-237 c0,-5 -9,-18 -21,-29 c-32,-29 -121,-186 -173,-305 c-152,-352 -192,-746 -112,-1124 c68,-317 225,-622 443,-855 c171,-185 331,-304 548,-410 c389,-191 844,-236 1267,-125 c718,188 1245,777 1353,1515 c42,285 -1,674 -101,915 c-29,70 -30,70 -71,73 c-24,2 -77,-8 -125,-22 c-267,-79 -371,-109 -528,-150 c-96,-26 -213,-57 -260,-70 c-222,-62 -400,-111 -565,-157 c-186,-51 -221,-67 -243,-113 c-12,-24 -5,-54 69,-319 c44,-160 87,-306 94,-324 c19,-44 63,-66 112,-54 c151,36 409,105 461,123 c48,17 65,19 74,10 c26,-26 -144,-230 -253,-305 c-199,-136 -472,-174 -699,-98 c-281,94 -478,317 -536,604 c-12,60 -15,111 -11,196 c8,173 52,298 156,435 c61,81 71,91 144,150 c231,186 571,223 837,92 l70,-34 l39,66 c21,37 59,103 83,147 c25,44 55,96 66,115 c11,19 57,100 102,180 c46,80 92,161 103,180 c11,19 28,49 37,65 c9,17 29,52 44,78 c17,28 25,52 20,57 c-41,39 -286,146 -427,186 c-186,52 -480,83 -647,68 z" id="svg_2"/>
<path d="M5916,13534.000000000002 c-14,-14 -16,-170 -16,-1569 c0,-1073 3,-1562 11,-1582 c5,-15 16,-31 22,-35 c7,-4 193,-8 415,-8 c329,0 409,3 437,14 c19,8 36,16 37,18 c1,2 5,303 8,670 l5,666 l301,-236 c166,-131 524,-411 795,-625 c631,-494 613,-481 617,-489 c7,-15 60,-8 66,8 c3,9 6,706 6,1549 c0,1494 0,1533 -19,1556 l-19,24 l-441,0 c-348,0 -443,-3 -453,-13 c-10,-10 -14,-145 -18,-649 l-5,-636 l-310,245 c-170,134 -395,311 -500,394 c-104,82 -278,219 -385,304 c-311,245 -484,383 -498,397 c-18,17 -37,16 -56,-3 z" id="svg_3"/>
<path d="M17305,13529.000000000002 c-190,-15 -364,-61 -533,-140 c-46,-22 -86,-39 -89,-39 c-11,0 -174,-109 -231,-154 c-163,-131 -266,-243 -374,-412 c-65,-101 -128,-224 -128,-249 c0,-8 -4,-16 -9,-19 c-4,-3 -14,-27 -21,-53 c-8,-27 -16,-50 -20,-53 c-8,-6 -41,-128 -45,-167 c-2,-15 -10,-68 -18,-118 c-19,-114 -15,-379 6,-490 c20,-104 57,-247 66,-260 c5,-5 11,-23 15,-40 c17,-71 148,-309 225,-410 c152,-199 366,-374 586,-479 c123,-59 129,-61 188,-76 c26,-7 50,-16 52,-21 c3,-4 27,-11 53,-14 c26,-4 70,-12 97,-20 c28,-7 57,-13 65,-13 c8,-1 33,-4 55,-7 c79,-12 297,-12 393,1 c145,19 287,53 357,84 c11,5 45,19 75,30 c108,42 264,133 370,218 c270,216 469,513 555,829 c52,188 59,247 60,465 c0,176 -2,199 -18,215 c-16,17 -61,18 -780,14 c-812,-3 -811,-3 -837,-52 c-9,-16 -11,-97 -7,-313 l6,-291 l27,-23 c26,-23 29,-23 276,-21 c276,1 296,-3 243,-48 c-16,-14 -41,-35 -55,-47 c-45,-39 -174,-109 -225,-122 c-155,-41 -274,-43 -402,-7 c-101,28 -124,39 -215,100 c-175,117 -292,323 -303,534 c-18,353 214,664 548,735 c119,25 339,16 371,-16 c5,-5 16,-10 24,-10 c36,0 167,-78 227,-135 c21,-19 40,-35 43,-35 c3,0 146,143 318,318 l312,317 l-46,48 c-86,89 -251,204 -393,276 c-75,38 -152,72 -170,76 c-19,4 -38,11 -44,15 c-12,10 -144,45 -205,55 c-152,26 -317,34 -445,24 z" id="svg_4"/>
<path d="M12847,13523.000000000002 c-4,-3 -7,-717 -7,-1585 l0,-1578 l26,-11 c17,-6 180,-9 440,-7 c381,3 415,4 431,21 c17,17 18,61 23,672 l5,654 l455,-356 c250,-195 626,-488 835,-650 c209,-163 392,-307 406,-320 c32,-30 57,-22 64,20 c3,18 4,717 3,1555 c-3,1495 -3,1524 -22,1538 c-16,12 -94,14 -451,14 c-426,0 -432,0 -451,-21 c-18,-20 -19,-47 -21,-636 c-1,-338 -4,-617 -7,-620 c-2,-3 -256,192 -562,434 c-307,241 -570,447 -585,458 c-82,61 -519,408 -524,416 c-7,10 -48,12 -58,2 z" id="svg_5"/>
<path d="M20336,13398.000000000002 c-34,-73 -105,-223 -156,-333 c-51,-110 -133,-285 -183,-390 c-49,-104 -102,-217 -117,-250 c-25,-55 -48,-105 -145,-310 c-18,-38 -112,-239 -208,-445 c-349,-750 -569,-1216 -592,-1257 c-41,-75 -52,-73 433,-73 l421,0 l19,28 c21,30 92,161 143,262 c17,36 41,77 51,93 l19,27 l418,0 l417,0 l104,-202 l105,-203 l409,-3 c422,-2 436,-1 436,38 c0,9 -103,233 -229,496 c-125,263 -300,630 -388,814 c-88,184 -210,441 -271,570 c-348,738 -602,1265 -611,1268 c-6,2 -40,-56 -75,-130 zm191,-1765 c62,-114 111,-208 110,-210 c-5,-4 -408,-5 -413,-1 c-5,5 178,417 186,418 c3,0 55,-93 117,-207 z" id="svg_6"/>
<path d="M4060,13490.000000000002 c0,-5 -59,-134 -131,-287 c-204,-433 -347,-737 -604,-1283 c-130,-278 -304,-644 -385,-815 c-217,-454 -327,-688 -334,-712 c-5,-16 -1,-26 16,-37 c20,-14 74,-16 433,-15 l410,1 l100,204 l100,203 l421,1 l422,0 l29,-47 c85,-137 185,-315 187,-330 c0,-10 8,-21 16,-25 c24,-11 795,-9 824,2 c22,8 24,13 16,37 c-4,15 -97,217 -205,448 c-108,231 -369,789 -580,1240 c-211,451 -442,946 -514,1100 c-73,154 -134,290 -137,303 c-5,18 -13,22 -45,22 c-21,0 -39,-4 -39,-10 zm206,-2017 l24,-53 l-200,0 l-201,0 l102,202 l102,202 l75,-150 c41,-82 86,-173 98,-201 z" id="svg_7"/>
<path d="M6,13454.000000000002 c-3,-9 -6,-701 -6,-1538 c0,-1170 3,-1525 12,-1534 c20,-20 1152,-17 1316,4 c191,23 438,113 621,226 c181,112 367,297 484,480 c256,403 312,889 155,1352 c-27,81 -106,239 -164,329 c-244,378 -660,634 -1119,687 c-53,6 -340,10 -691,10 c-540,0 -602,-2 -608,-16 zm1269,-899 c221,-56 397,-235 455,-461 c38,-147 20,-336 -43,-461 c-65,-126 -176,-236 -301,-294 c-107,-50 -156,-59 -328,-59 l-158,0 l0,645 l0,645 l158,0 c108,0 177,-5 217,-15 z" id="svg_8"/>
</g></g></svg>