<?xml version="1.0" standalone="no"?>
<!DOCTYPE svg PUBLIC "-//W3C//DTD SVG 20010904//EN"
 "http://www.w3.org/TR/2001/REC-SVG-20010904/DTD/svg10.dtd">
<svg version="1.0" xmlns="http://www.w3.org/2000/svg"
 width="3000.000000pt" height="2400.000000pt" viewBox="0 0 3000.000000 2400.000000"
 preserveAspectRatio="xMidYMid meet">

<g transform="translate(0.000000,1400.000000) scale(0.100000,-0.100000)"
fill="#000000" stroke="none">
<path d="M15400 14004 c-278 -25 -574 -118 -794 -248 -116 -69 -259 -179 -356
-276 -89 -87 -200 -219 -200 -237 0 -5 -9 -18 -21 -29 -32 -29 -121 -186 -173
-305 -152 -352 -192 -746 -112 -1124 68 -317 225 -622 443 -855 171 -185 331
-304 548 -410 389 -191 844 -236 1267 -125 718 188 1245 777 1353 1515 42 285
-1 674 -101 915 -29 70 -30 70 -71 73 -24 2 -77 -8 -125 -22 -267 -79 -371
-109 -528 -150 -96 -26 -213 -57 -260 -70 -222 -62 -400 -111 -565 -157 -186
-51 -221 -67 -243 -113 -12 -24 -5 -54 69 -319 44 -160 87 -306 94 -324 19
-44 63 -66 112 -54 151 36 409 105 461 123 48 17 65 19 74 10 26 -26 -144
-230 -253 -305 -199 -136 -472 -174 -699 -98 -281 94 -478 317 -536 604 -12
60 -15 111 -11 196 8 173 52 298 156 435 61 81 71 91 144 150 231 186 571 223
837 92 l70 -34 39 66 c21 37 59 103 83 147 25 44 55 96 66 115 11 19 57 100
102 180 46 80 92 161 103 180 11 19 28 49 37 65 9 17 29 52 44 78 17 28 25 52
20 57 -41 39 -286 146 -427 186 -186 52 -480 83 -647 68z"/>
<path d="M10716 13534 c-14 -14 -16 -170 -16 -1569 0 -1073 3 -1562 11 -1582
5 -15 16 -31 22 -35 7 -4 193 -8 415 -8 329 0 409 3 437 14 19 8 36 16 37 18
1 2 5 303 8 670 l5 666 301 -236 c166 -131 524 -411 795 -625 631 -494 613
-481 617 -489 7 -15 60 -8 66 8 3 9 6 706 6 1549 0 1494 0 1533 -19 1556 l-19
24 -441 0 c-348 0 -443 -3 -453 -13 -10 -10 -14 -145 -18 -649 l-5 -636 -310
245 c-170 134 -395 311 -500 394 -104 82 -278 219 -385 304 -311 245 -484 383
-498 397 -18 17 -37 16 -56 -3z"/>
<path d="M22105 13529 c-190 -15 -364 -61 -533 -140 -46 -22 -86 -39 -89 -39
-11 0 -174 -109 -231 -154 -163 -131 -266 -243 -374 -412 -65 -101 -128 -224
-128 -249 0 -8 -4 -16 -9 -19 -4 -3 -14 -27 -21 -53 -8 -27 -16 -50 -20 -53
-8 -6 -41 -128 -45 -167 -2 -15 -10 -68 -18 -118 -19 -114 -15 -379 6 -490 20
-104 57 -247 66 -260 5 -5 11 -23 15 -40 17 -71 148 -309 225 -410 152 -199
366 -374 586 -479 123 -59 129 -61 188 -76 26 -7 50 -16 52 -21 3 -4 27 -11
53 -14 26 -4 70 -12 97 -20 28 -7 57 -13 65 -13 8 -1 33 -4 55 -7 79 -12 297
-12 393 1 145 19 287 53 357 84 11 5 45 19 75 30 108 42 264 133 370 218 270
216 469 513 555 829 52 188 59 247 60 465 0 176 -2 199 -18 215 -16 17 -61 18
-780 14 -812 -3 -811 -3 -837 -52 -9 -16 -11 -97 -7 -313 l6 -291 27 -23 c26
-23 29 -23 276 -21 276 1 296 -3 243 -48 -16 -14 -41 -35 -55 -47 -45 -39
-174 -109 -225 -122 -155 -41 -274 -43 -402 -7 -101 28 -124 39 -215 100 -175
117 -292 323 -303 534 -18 353 214 664 548 735 119 25 339 16 371 -16 5 -5 16
-10 24 -10 36 0 167 -78 227 -135 21 -19 40 -35 43 -35 3 0 146 143 318 318
l312 317 -46 48 c-86 89 -251 204 -393 276 -75 38 -152 72 -170 76 -19 4 -38
11 -44 15 -12 10 -144 45 -205 55 -152 26 -317 34 -445 24z"/>
<path d="M17647 13523 c-4 -3 -7 -717 -7 -1585 l0 -1578 26 -11 c17 -6 180 -9
440 -7 381 3 415 4 431 21 17 17 18 61 23 672 l5 654 455 -356 c250 -195 626
-488 835 -650 209 -163 392 -307 406 -320 32 -30 57 -22 64 20 3 18 4 717 3
1555 -3 1495 -3 1524 -22 1538 -16 12 -94 14 -451 14 -426 0 -432 0 -451 -21
-18 -20 -19 -47 -21 -636 -1 -338 -4 -617 -7 -620 -2 -3 -256 192 -562 434
-307 241 -570 447 -585 458 -82 61 -519 408 -524 416 -7 10 -48 12 -58 2z"/>
<path d="M25136 13398 c-34 -73 -105 -223 -156 -333 -51 -110 -133 -285 -183
-390 -49 -104 -102 -217 -117 -250 -25 -55 -48 -105 -145 -310 -18 -38 -112
-239 -208 -445 -349 -750 -569 -1216 -592 -1257 -41 -75 -52 -73 433 -73 l421
0 19 28 c21 30 92 161 143 262 17 36 41 77 51 93 l19 27 418 0 417 0 104 -202
105 -203 409 -3 c422 -2 436 -1 436 38 0 9 -103 233 -229 496 -125 263 -300
630 -388 814 -88 184 -210 441 -271 570 -348 738 -602 1265 -611 1268 -6 2
-40 -56 -75 -130z m191 -1765 c62 -114 111 -208 110 -210 -5 -4 -408 -5 -413
-1 -5 5 178 417 186 418 3 0 55 -93 117 -207z"/>
<path d="M8860 13490 c0 -5 -59 -134 -131 -287 -204 -433 -347 -737 -604
-1283 -130 -278 -304 -644 -385 -815 -217 -454 -327 -688 -334 -712 -5 -16 -1
-26 16 -37 20 -14 74 -16 433 -15 l410 1 100 204 100 203 421 1 422 0 29 -47
c85 -137 185 -315 187 -330 0 -10 8 -21 16 -25 24 -11 795 -9 824 2 22 8 24
13 16 37 -4 15 -97 217 -205 448 -108 231 -369 789 -580 1240 -211 451 -442
946 -514 1100 -73 154 -134 290 -137 303 -5 18 -13 22 -45 22 -21 0 -39 -4
-39 -10z m206 -2017 l24 -53 -200 0 -201 0 102 202 102 202 75 -150 c41 -82
86 -173 98 -201z"/>
<path d="M4806 13454 c-3 -9 -6 -701 -6 -1538 0 -1170 3 -1525 12 -1534 20
-20 1152 -17 1316 4 191 23 438 113 621 226 181 112 367 297 484 480 256 403
312 889 155 1352 -27 81 -106 239 -164 329 -244 378 -660 634 -1119 687 -53 6
-340 10 -691 10 -540 0 -602 -2 -608 -16z m1269 -899 c221 -56 397 -235 455
-461 38 -147 20 -336 -43 -461 -65 -126 -176 -236 -301 -294 -107 -50 -156
-59 -328 -59 l-158 0 0 645 0 645 158 0 c108 0 177 -5 217 -15z"/>
</g>
</svg>
